<svg width="90" height="109" viewBox="0 0 90 109" fill="none" xmlns="http://www.w3.org/2000/svg">
<path d="M89.9999 5L73.3282 0.304075L77.5973 17.0902L89.9999 5ZM2.78345 106.938C13.3323 106.938 21.3512 101.628 27.8726 93.6614C34.359 85.7379 39.4786 75.0537 44.2734 64.0042C49.101 52.8792 53.5958 41.3966 58.8808 31.5502C64.169 21.6978 70.1048 13.7764 77.638 9.64245L76.1948 7.01243C67.8759 11.5775 61.5978 20.1446 56.2374 30.1315C50.8738 40.1245 46.2851 51.8321 41.5213 62.81C36.7248 73.8634 31.7452 84.1948 25.5512 91.7611C19.3924 99.2845 12.15 103.938 2.78345 103.938V106.938Z" fill="white"/>
<circle cx="2.78351" cy="105.438" r="1.5" fill="white" stroke="white" stroke-width="2.56701"/>
</svg>
