<svg width="120" height="128" viewBox="0 0 120 128" fill="none" xmlns="http://www.w3.org/2000/svg">
<path d="M34.8114 127.527L52.0902 126.325L42.4101 111.962L34.8114 127.527ZM82.5396 2.14696C72.6088 5.70456 66.8506 13.4083 63.3979 23.1072C59.9638 32.7541 58.7473 44.5389 57.9598 56.5581C57.167 68.6595 56.8081 80.9853 55.1534 92.0371C53.4977 103.096 50.5812 112.555 44.8834 118.987L47.1291 120.977C53.421 113.873 56.4421 103.691 58.1203 92.4813C59.7996 81.2649 60.1711 68.6956 60.9534 56.7542C61.7412 44.7308 62.9448 33.3253 66.2242 24.1134C69.4849 14.9536 74.7335 8.13009 83.5514 4.9712L82.5396 2.14696Z" fill="black"/>
<circle cx="83.0456" cy="3.55903" r="1.5" transform="rotate(160.291 83.0456 3.55903)" fill="white" stroke="black" stroke-width="2.56701"/>
</svg>
