<svg width="44" height="44" viewBox="0 0 44 44" fill="none" xmlns="http://www.w3.org/2000/svg">
<path fill-rule="evenodd" clip-rule="evenodd" d="M1.83325 5.20292C1.83325 4.30923 2.18827 3.45214 2.8202 2.82021C3.45214 2.18827 4.30923 1.83326 5.20292 1.83326H38.7933C39.2361 1.83253 39.6748 1.91917 40.0842 2.08821C40.4935 2.25725 40.8655 2.50537 41.1789 2.81837C41.4922 3.13137 41.7407 3.5031 41.9102 3.91227C42.0797 4.32145 42.1668 4.76004 42.1666 5.20292V38.7933C42.1671 39.2362 42.0802 39.6749 41.911 40.0843C41.7417 40.4937 41.4934 40.8657 41.1803 41.179C40.8671 41.4923 40.4953 41.7408 40.086 41.9103C39.6767 42.0797 39.2381 42.1668 38.7951 42.1666H5.20292C4.76025 42.1666 4.32193 42.0794 3.91298 41.9099C3.50403 41.7405 3.13248 41.4921 2.81956 41.179C2.50663 40.8659 2.25846 40.4942 2.08923 40.0852C1.91999 39.6761 1.83301 39.2378 1.83325 38.7951V5.20292ZM17.7979 17.2113H23.2594V19.9539C24.0478 18.3773 26.0644 16.9583 29.0949 16.9583C34.9048 16.9583 36.2816 20.0988 36.2816 25.8609V36.5346H30.4021V27.1736C30.4021 23.8919 29.6138 22.0403 27.6117 22.0403C24.8343 22.0403 23.6793 24.0368 23.6793 27.1736V36.5346H17.7979V17.2113ZM7.71459 36.2834H13.5959V16.9583H7.71459V36.2816V36.2834ZM14.4374 10.6553C14.4485 11.1588 14.3589 11.6595 14.1739 12.128C13.9888 12.5965 13.7121 13.0233 13.3598 13.3833C13.0076 13.7434 12.587 14.0295 12.1228 14.2248C11.6585 14.4201 11.1599 14.5207 10.6562 14.5207C10.1525 14.5207 9.65386 14.4201 9.18959 14.2248C8.72531 14.0295 8.30471 13.7434 7.95249 13.3833C7.60028 13.0233 7.32352 12.5965 7.13848 12.128C6.95344 11.6595 6.86383 11.1588 6.87492 10.6553C6.89668 9.66682 7.30462 8.72621 8.01138 8.03485C8.71813 7.34349 9.6675 6.95636 10.6562 6.95636C11.6448 6.95636 12.5942 7.34349 13.301 8.03485C14.0077 8.72621 14.4157 9.66682 14.4374 10.6553Z" fill="black"/>
</svg>
