<svg width="39" height="39" viewBox="0 0 39 39" fill="none" xmlns="http://www.w3.org/2000/svg">
<g clip-path="url(#clip0_51_4)">
<path d="M19.5 0.780029C9.16113 0.780029 0.780029 9.16113 0.780029 19.5C0.780029 29.8389 9.16113 38.22 19.5 38.22C29.8389 38.22 38.22 29.8389 38.22 19.5C38.22 9.16113 29.8389 0.780029 19.5 0.780029ZM14.9175 27.2591H11.1267V15.0599H14.9175V27.2591ZM12.9987 13.5623C11.8014 13.5623 11.0273 12.714 11.0273 11.6649C11.0273 10.5944 11.8248 9.77148 13.0475 9.77148C14.2701 9.77148 15.0189 10.5944 15.0423 11.6649C15.0423 12.714 14.2701 13.5623 12.9987 13.5623ZM28.7625 27.2591H24.9717V20.4984C24.9717 18.9248 24.4218 17.8562 23.051 17.8562C22.0038 17.8562 21.3818 18.5796 21.1068 19.2758C21.0054 19.5234 20.9801 19.8744 20.9801 20.2235V27.2571H17.1873V18.9501C17.1873 17.4272 17.1386 16.1538 17.0879 15.0579H20.3814L20.555 16.7525H20.631C21.1302 15.9569 22.3529 14.783 24.3984 14.783C26.8925 14.783 28.7625 16.4541 28.7625 20.046V27.2591V27.2591Z" fill="black"/>
</g>
<defs>
<clipPath id="clip0_51_4">
<rect width="39" height="39" fill="white"/>
</clipPath>
</defs>
</svg>
