<svg width="20" height="20" viewBox="0 0 20 20" fill="none" xmlns="http://www.w3.org/2000/svg">
<g clip-path="url(#clip0_74_2)">
<path d="M10 0.399902C4.69802 0.399902 0.400024 4.6979 0.400024 9.9999C0.400024 15.3019 4.69802 19.5999 10 19.5999C15.302 19.5999 19.6 15.3019 19.6 9.9999C19.6 4.6979 15.302 0.399902 10 0.399902ZM7.65002 13.9789H5.70602V7.7229H7.65002V13.9789ZM6.66602 6.9549C6.05202 6.9549 5.65502 6.5199 5.65502 5.9819C5.65502 5.4329 6.06402 5.0109 6.69102 5.0109C7.31802 5.0109 7.70202 5.4329 7.71402 5.9819C7.71402 6.5199 7.31802 6.9549 6.66602 6.9549ZM14.75 13.9789H12.806V10.5119C12.806 9.7049 12.524 9.1569 11.821 9.1569C11.284 9.1569 10.965 9.5279 10.824 9.8849C10.772 10.0119 10.759 10.1919 10.759 10.3709V13.9779H8.81402V9.7179C8.81402 8.9369 8.78902 8.2839 8.76302 7.7219H10.452L10.541 8.5909H10.58C10.836 8.1829 11.463 7.5809 12.512 7.5809C13.791 7.5809 14.75 8.4379 14.75 10.2799V13.9789V13.9789Z" fill="white"/>
</g>
<defs>
<clipPath id="clip0_74_2">
<rect width="20" height="20" fill="white"/>
</clipPath>
</defs>
</svg>
