<svg width="58" height="48" viewBox="0 0 58 48" fill="none" xmlns="http://www.w3.org/2000/svg">
<mask id="path-1-inside-1_280_25" fill="white">
<path fill-rule="evenodd" clip-rule="evenodd" d="M0.0381371 25.4783L14.1149 47.0729L35.456 33.1613L42.4944 43.9586L57.2103 3.59493L14.3408 0.769441L21.3792 11.5667L0.0381371 25.4783Z"/>
</mask>
<path fill-rule="evenodd" clip-rule="evenodd" d="M0.0381371 25.4783L14.1149 47.0729L35.456 33.1613L42.4944 43.9586L57.2103 3.59493L14.3408 0.769441L21.3792 11.5667L0.0381371 25.4783Z" fill="url(#paint0_linear_280_25)"/>
<path d="M14.1149 47.0729L9.08857 50.3494L12.3651 55.3757L17.3915 52.0992L14.1149 47.0729ZM0.0381371 25.4783L-3.23839 20.4519L-8.26476 23.7285L-4.98823 28.7548L0.0381371 25.4783ZM35.456 33.1613L40.4824 29.8848L37.2058 24.8584L32.1795 28.1349L35.456 33.1613ZM42.4944 43.9586L37.468 47.2351L44.0211 57.2878L48.1314 46.0137L42.4944 43.9586ZM57.2103 3.59493L62.8474 5.65011L65.5876 -1.86594L57.6049 -2.39207L57.2103 3.59493ZM14.3408 0.769441L14.7354 -5.21757L2.76138 -6.00677L9.31443 4.04597L14.3408 0.769441ZM21.3792 11.5667L24.6557 16.5931L29.6821 13.3166L26.4056 8.29021L21.3792 11.5667ZM19.1413 43.7963L5.0645 22.2018L-4.98823 28.7548L9.08857 50.3494L19.1413 43.7963ZM32.1795 28.1349L10.8384 42.0465L17.3915 52.0992L38.7325 38.1877L32.1795 28.1349ZM30.4296 36.4378L37.468 47.2351L47.5208 40.682L40.4824 29.8848L30.4296 36.4378ZM48.1314 46.0137L62.8474 5.65011L51.5733 1.53976L36.8574 41.9034L48.1314 46.0137ZM57.6049 -2.39207L14.7354 -5.21757L13.9462 6.75645L56.8157 9.58195L57.6049 -2.39207ZM9.31443 4.04597L16.3528 14.8433L26.4056 8.29021L19.3672 -2.50709L9.31443 4.04597ZM3.31466 30.5047L24.6557 16.5931L18.1027 6.54037L-3.23839 20.4519L3.31466 30.5047Z" fill="#151515" mask="url(#path-1-inside-1_280_25)"/>
<defs>
<linearGradient id="paint0_linear_280_25" x1="7.07652" y1="36.2756" x2="57.2104" y2="3.59491" gradientUnits="userSpaceOnUse">
<stop stop-color="#9F95FF"/>
<stop offset="1" stop-color="#F1662A"/>
</linearGradient>
</defs>
</svg>
