<?xml version="1.0" standalone="no"?>
<!DOCTYPE svg PUBLIC "-//W3C//DTD SVG 20010904//EN"
 "http://www.w3.org/TR/2001/REC-SVG-20010904/DTD/svg10.dtd">
<svg version="1.0" xmlns="http://www.w3.org/2000/svg"
 width="800.000000pt" height="800.000000pt" viewBox="0 0 800.000000 800.000000"
 preserveAspectRatio="xMidYMid meet">
<metadata>
Created by potrace 1.14, written by Peter Selinger 2001-2017
</metadata>
<g transform="translate(0.000000,800.000000) scale(0.100000,-0.100000)"
fill="#000000" stroke="none">
<path d="M4307 7923 c-2 -2 -64 -6 -138 -9 -74 -2 -147 -6 -164 -8 -87 -10
-193 -20 -217 -21 -16 0 -28 -2 -28 -6 0 -3 -19 -6 -42 -8 -23 -1 -45 -4 -49
-6 -4 -3 -22 -7 -40 -9 -19 -3 -68 -12 -109 -21 -41 -9 -84 -18 -95 -19 -11
-2 -27 -6 -35 -10 -8 -3 -26 -8 -40 -10 -62 -12 -289 -79 -316 -94 -11 -5 -21
-10 -24 -9 -29 3 -373 -145 -540 -234 -143 -75 -283 -158 -288 -171 -2 -5 -8
-8 -13 -8 -16 0 -314 -218 -375 -275 -6 -5 -34 -30 -63 -55 -102 -87 -286
-275 -376 -384 -22 -27 -45 -54 -50 -60 -48 -51 -265 -367 -265 -385 0 -5 -3
-11 -7 -13 -17 -7 -193 -348 -193 -372 0 -9 -4 -16 -10 -16 -5 0 -10 -6 -10
-14 0 -7 -10 -35 -22 -62 -12 -27 -23 -51 -23 -54 -3 -15 -26 -82 -43 -127
-11 -29 -18 -53 -15 -53 3 0 1 -6 -4 -12 -6 -7 -14 -26 -18 -43 -12 -50 -14
-57 -35 -134 -11 -40 -22 -85 -24 -100 -2 -14 -5 -26 -6 -26 -1 0 -3 -9 -4
-20 -2 -11 -6 -38 -11 -60 -4 -22 -8 -49 -10 -60 -2 -11 -6 -33 -9 -50 -5 -28
-8 -55 -22 -185 -18 -174 -18 -429 0 -640 9 -106 18 -183 22 -203 3 -12 7 -38
9 -57 3 -19 8 -51 11 -70 4 -19 8 -44 10 -55 17 -100 15 -93 49 -231 15 -60
28 -116 30 -124 2 -8 22 -73 45 -145 143 -444 358 -860 638 -1235 47 -63 89
-117 92 -120 3 -3 29 -34 59 -70 83 -102 196 -224 295 -320 136 -131 157 -150
232 -213 38 -33 79 -68 92 -78 129 -110 430 -316 622 -426 135 -78 465 -243
485 -243 3 0 34 -13 70 -30 36 -16 67 -30 70 -30 2 0 16 -5 32 -12 15 -6 33
-13 38 -14 6 -2 62 -22 125 -44 206 -74 517 -158 705 -191 28 -4 61 -10 75
-13 27 -5 140 -22 203 -31 60 -8 120 -15 173 -20 27 -2 49 -5 49 -5 0 -3 125
-10 280 -15 88 -4 165 -7 170 -7 6 -1 36 6 67 16 100 29 160 108 164 216 3 76
-16 128 -66 178 -63 63 -91 70 -335 77 -77 3 -165 7 -195 10 -128 13 -157 16
-200 19 -25 2 -56 6 -70 9 -28 6 -166 29 -190 32 -58 7 -398 86 -440 102 -8 3
-22 7 -30 9 -8 2 -49 15 -90 29 -41 14 -82 27 -90 29 -21 6 -181 64 -205 76
-11 5 -68 29 -126 54 -59 25 -139 62 -178 81 -39 19 -75 35 -81 35 -5 0 -10 3
-10 8 0 4 -14 13 -30 20 -52 24 -266 150 -365 216 -22 14 -48 32 -59 39 -47
31 -256 188 -282 213 -6 5 -31 26 -54 45 -119 97 -354 331 -455 453 -22 26
-45 54 -52 61 -24 26 -200 263 -223 301 -13 21 -26 41 -29 44 -4 3 -11 14 -18
25 -6 11 -33 56 -60 100 -26 44 -70 125 -98 180 -27 55 -53 102 -56 105 -8 7
-82 180 -124 290 -50 130 -108 315 -130 415 -30 135 -54 250 -59 286 -3 24 -9
58 -12 74 -3 17 -7 48 -8 70 -2 22 -6 65 -10 95 -6 49 -17 208 -16 235 0 6 1
35 2 66 1 30 -1 63 -5 72 -3 9 -3 17 1 17 4 0 7 33 8 73 1 115 16 247 49 417
4 20 43 180 59 240 6 23 52 158 73 215 10 28 21 52 26 53 4 2 7 11 7 19 0 16
139 304 151 313 3 3 14 21 24 40 28 55 149 234 202 300 7 8 26 33 43 55 86
109 274 306 374 390 26 22 55 47 64 56 36 34 202 156 302 221 58 37 110 71
115 76 16 11 103 59 185 100 41 20 77 40 78 45 2 4 9 7 16 7 7 0 31 9 54 20
50 24 83 37 96 38 5 0 12 4 15 9 16 21 377 140 541 178 8 2 34 8 58 13 23 5
42 8 42 5 0 -3 6 -1 13 4 6 5 19 9 27 8 8 -1 25 2 37 7 12 4 48 10 80 13 32 3
65 8 73 10 8 3 42 7 75 10 33 3 76 8 95 11 29 4 289 16 325 15 163 -5 319 -15
373 -26 9 -1 42 -6 72 -10 45 -6 168 -30 252 -50 71 -16 175 -49 187 -59 8 -6
17 -10 20 -9 7 4 93 -24 141 -45 154 -66 252 -113 283 -134 15 -11 27 -17 27
-14 0 5 48 -23 170 -102 67 -43 192 -136 240 -177 158 -138 273 -257 369 -383
20 -26 39 -48 44 -50 4 -2 7 -8 7 -13 0 -5 8 -18 18 -29 20 -24 94 -140 120
-190 10 -19 28 -51 39 -70 51 -89 135 -298 165 -410 5 -19 14 -51 19 -70 20
-73 42 -185 54 -280 4 -31 18 -270 17 -295 -7 -187 -41 -366 -103 -542 -34
-97 -98 -236 -111 -241 -4 -2 -8 -12 -8 -22 0 -10 -4 -20 -8 -22 -4 -1 -19
-23 -34 -48 -33 -57 -150 -213 -197 -263 -107 -113 -194 -192 -281 -255 -36
-25 -67 -49 -70 -52 -5 -6 -126 -79 -213 -128 -21 -12 -44 -22 -51 -22 -8 0
-19 -6 -25 -13 -6 -8 -30 -20 -53 -27 -24 -8 -48 -17 -53 -21 -31 -23 -321
-107 -425 -123 -19 -3 -46 -8 -59 -10 -136 -28 -506 -28 -641 -1 -14 3 -38 8
-55 11 -135 23 -366 112 -500 191 -49 29 -140 87 -145 93 -3 3 -30 25 -60 50
-77 62 -189 177 -244 252 -26 35 -52 70 -59 79 -40 54 -125 229 -157 328 -25
74 -57 225 -59 271 0 8 -2 55 -4 104 -5 127 20 283 62 391 18 45 74 159 81
165 3 3 17 23 30 45 34 56 45 69 135 161 115 117 267 220 400 269 28 10 56 23
63 28 6 5 12 7 12 4 0 -4 19 1 43 9 23 9 51 17 62 20 11 2 31 6 45 9 53 11 77
15 132 21 129 14 290 5 383 -20 6 -1 30 -8 55 -15 81 -22 169 -64 260 -124 68
-46 154 -123 205 -187 151 -187 209 -465 139 -663 -16 -44 -68 -142 -88 -163
-75 -82 -131 -130 -189 -165 -38 -22 -74 -42 -80 -43 -7 -1 -16 -4 -22 -7 -14
-9 -79 -29 -107 -34 -13 -3 -43 -8 -68 -13 -70 -12 -189 -6 -250 13 -3 1 -18
5 -35 10 -90 23 -187 97 -261 197 -29 38 -62 148 -68 221 -4 54 -48 167 -65
167 -4 0 -16 8 -27 18 -75 69 -217 67 -303 -4 -37 -31 -70 -89 -78 -141 -19
-112 31 -344 98 -453 5 -8 13 -24 18 -35 27 -62 147 -197 238 -267 101 -79
279 -165 375 -182 18 -4 65 -12 103 -19 71 -12 220 -13 310 -2 125 16 326 78
392 121 12 8 27 14 33 14 6 0 16 5 23 10 7 6 34 25 61 43 90 58 81 52 167 133
78 74 104 105 163 197 57 88 83 141 123 252 2 6 12 51 23 100 30 133 30 354
-1 469 -6 22 -12 48 -14 56 -11 59 -81 234 -118 295 -32 54 -113 173 -131 194
-67 76 -193 194 -264 244 -76 54 -224 135 -302 165 -19 8 -44 18 -55 23 -25
11 -255 67 -275 67 -8 0 -40 3 -70 8 -89 12 -394 5 -419 -10 -3 -2 -27 -7 -52
-10 -128 -17 -316 -79 -464 -152 -140 -70 -186 -97 -267 -159 -14 -11 -41 -31
-60 -45 -134 -100 -323 -326 -400 -478 -14 -29 -31 -58 -36 -65 -5 -7 -17 -33
-26 -59 -9 -26 -20 -56 -25 -65 -19 -35 -64 -197 -76 -275 -21 -136 -26 -333
-11 -448 3 -25 8 -63 11 -84 8 -63 55 -245 82 -321 48 -133 188 -403 214 -413
5 -2 9 -8 9 -14 0 -18 132 -178 224 -271 51 -52 140 -130 197 -173 109 -83
111 -84 199 -136 30 -17 57 -34 60 -37 8 -9 124 -65 132 -63 3 1 12 -5 18 -13
7 -8 18 -15 24 -15 6 0 45 -13 86 -29 111 -43 113 -44 140 -48 13 -2 29 -8 35
-13 5 -4 24 -10 40 -13 17 -3 44 -10 60 -17 17 -6 31 -11 33 -10 2 2 66 -8
107 -16 11 -3 34 -6 50 -9 17 -3 48 -8 70 -11 22 -4 132 -8 245 -9 199 -2 319
7 510 39 67 11 245 53 270 63 8 3 20 7 25 9 6 1 33 10 60 19 28 10 55 18 60
19 6 2 27 10 49 19 21 9 40 17 42 17 18 0 270 124 354 174 76 46 173 110 215
143 17 13 35 27 40 31 185 139 382 347 515 542 55 82 193 320 185 320 -2 0 11
33 29 73 54 118 120 330 132 425 2 19 6 37 8 41 2 3 7 30 11 60 4 30 9 63 11
75 2 12 7 79 10 151 3 71 8 133 10 137 3 4 2 8 -3 8 -4 0 -8 35 -9 78 0 74
-11 206 -19 247 -3 11 -7 38 -10 59 -3 21 -7 48 -10 60 -3 12 -7 32 -9 46 -4
21 -12 58 -30 135 -50 207 -172 500 -297 707 -64 106 -154 239 -198 294 -177
217 -300 341 -501 502 -86 69 -301 222 -313 222 -3 0 -34 17 -68 38 -68 42
-252 134 -334 168 -68 28 -195 78 -205 80 -3 0 -12 3 -20 7 -41 16 -127 42
-245 72 -139 35 -182 44 -285 61 -25 4 -52 9 -60 10 -15 3 -107 14 -170 20
-19 2 -93 6 -165 9 -71 3 -142 7 -157 9 -15 2 -29 1 -31 -1z"/>
</g>
</svg>
